<svg width="33" height="33" viewBox="0 0 33 33" fill="none" xmlns="http://www.w3.org/2000/svg">
<g clip-path="url(#clip0_33_2)">
<path d="M12.375 15.125C12.375 16.219 12.8096 17.2682 13.5832 18.0418C14.3568 18.8154 15.406 19.25 16.5 19.25C17.594 19.25 18.6432 18.8154 19.4168 18.0418C20.1904 17.2682 20.625 16.219 20.625 15.125C20.625 14.031 20.1904 12.9818 19.4168 12.2082C18.6432 11.4346 17.594 11 16.5 11C15.406 11 14.3568 11.4346 13.5832 12.2082C12.8096 12.9818 12.375 14.031 12.375 15.125Z" stroke="white" stroke-width="2" stroke-linecap="round" stroke-linejoin="round"/>
<path d="M24.2784 22.9035L18.4442 28.7376C17.9286 29.2527 17.2295 29.5421 16.5007 29.5421C15.7718 29.5421 15.0728 29.2527 14.5571 28.7376L8.72162 22.9035C7.1833 21.3651 6.13571 19.405 5.71132 17.2713C5.28693 15.1375 5.5048 12.9258 6.33738 10.9158C7.16996 8.90589 8.57986 7.18795 10.3888 5.97928C12.1977 4.77061 14.3244 4.12549 16.5 4.12549C18.6756 4.12549 20.8023 4.77061 22.6112 5.97928C24.4201 7.18795 25.83 8.90589 26.6626 10.9158C27.4952 12.9258 27.7131 15.1375 27.2887 17.2713C26.8643 19.405 25.8167 21.3651 24.2784 22.9035Z" stroke="white" stroke-width="2" stroke-linecap="round" stroke-linejoin="round"/>
</g>
<defs>
<clipPath id="clip0_33_2">
<rect width="33" height="33" fill="white"/>
</clipPath>
</defs>
</svg>
