<svg width="1671" height="464" viewBox="0 0 1671 464" fill="none" xmlns="http://www.w3.org/2000/svg">
<path fill-rule="evenodd" clip-rule="evenodd" d="M666.062 0C679.062 0 692.062 0 705.062 0C705.062 15.3333 705.062 30.6667 705.062 46C686.395 46 667.729 46 649.062 46C648.896 36.9938 649.062 27.9938 649.562 19C651.712 9.6882 657.212 3.3549 666.062 0Z" fill="white"/>
<path opacity="0.984" fill-rule="evenodd" clip-rule="evenodd" d="M1389.06 0.999766C1401.78 0.602166 1414.45 1.10217 1427.06 2.49977C1436.75 6.18877 1442.92 13.0222 1445.56 22.9998C1445.89 65.6668 1446.23 108.333 1446.56 151C1469.06 125.167 1491.56 99.3328 1514.06 73.4998C1537.07 72.6668 1560.07 72.8338 1583.06 73.9998C1557.94 101.952 1532.28 129.452 1506.06 156.5C1531.93 200.749 1557.93 244.916 1584.06 289C1561.07 290.166 1538.07 290.333 1515.06 289.5C1500.89 263.333 1486.73 237.167 1472.56 211C1469.76 207.201 1466.6 203.701 1463.06 200.5C1458.89 197.712 1454.56 197.379 1450.06 199.5C1448.07 200.819 1446.91 202.652 1446.56 205C1446.06 233.331 1445.89 261.665 1446.06 290C1427.06 290 1408.06 290 1389.06 290C1389.06 193.667 1389.06 97.3328 1389.06 0.999766Z" fill="white"/>
<path opacity="0.993" fill-rule="evenodd" clip-rule="evenodd" d="M139.063 56C148.552 60.329 157.719 65.329 166.563 71C191.477 55.558 218.643 49.725 248.063 53.5C281.538 54.633 306.038 69.799 321.562 99C323.291 98.148 323.457 97.148 322.062 96C329.117 88.443 336.451 80.943 344.062 73.5C359.238 62.439 376.239 56.106 395.062 54.5C418.014 51.995 440.347 54.495 462.062 62C462.062 62.667 462.396 63 463.062 63C463.9 62.658 464.235 61.992 464.062 61C464.062 59.667 464.062 58.333 464.062 57C485.638 56.673 507.138 57.006 528.562 58C543.766 109.941 558.766 161.941 573.562 214C586.849 168.856 599.516 123.522 611.562 78C616.067 64.99 625.233 58.157 639.062 57.5C654.396 56.833 669.729 56.833 685.062 57.5C696.566 58.501 703.401 64.667 705.562 76C706.062 146.666 706.229 217.333 706.062 288C686.726 288.167 667.392 288 648.062 287.5C647.562 287 647.062 286.5 646.562 286C647.108 249.343 647.108 212.676 646.562 176C632.767 212.885 619.267 249.885 606.062 287C585.403 288.166 564.737 288.333 544.062 287.5C534.769 262.788 525.769 237.955 517.062 213C498.57 271.44 458.57 298.274 397.062 293.5C376.199 290.396 357.532 282.396 341.062 269.5C337.859 266.631 335.026 263.465 332.562 260C332.062 268.327 331.897 276.66 332.062 285C317.366 285.277 302.7 284.777 288.062 283.5C277.34 278.897 272.008 270.73 272.062 259C272.83 258.328 273.497 257.495 274.062 256.5C273.461 229.906 273.461 203.24 274.062 176.5C273.896 161.667 273.729 146.833 273.562 132C272.457 127.696 271.456 123.363 270.562 119C267.694 115.764 265.194 112.264 263.062 108.5C245.128 100.966 226.796 99.966 208.063 105.5C203.312 110.474 199.146 115.974 195.563 122C195.23 125.667 194.896 129.333 194.563 133C194.063 182.666 193.896 232.332 194.063 282C175.396 282 156.73 282 138.063 282C136.873 232.486 136.873 182.986 138.063 133.5C136.767 127.945 135.267 122.445 133.563 117C129.73 111.833 125.23 107.333 120.063 103.5C113.137 102.249 106.304 100.749 99.5625 99C91.0655 99.172 82.8995 101.005 75.0625 104.5C73.8524 105.539 72.8524 106.706 72.0625 108C65.921 113.276 62.0877 119.943 60.5625 128C60.2292 179.667 59.8958 231.333 59.5625 283C39.8052 283.993 19.9718 284.326 0.0625141 284C-0.104186 231.999 0.0625141 179.999 0.562514 128C6.73651 83.159 32.2365 57.659 77.0625 51.5C98.1915 48.622 118.859 50.122 139.063 56ZM404.062 106C425.969 103.196 441.137 111.862 449.562 132C452.251 139.443 453.918 147.109 454.562 155C456.118 172.908 454.786 190.575 450.562 208C445.227 228.004 432.226 238.338 411.562 239C390.487 238.264 377.488 227.598 372.562 207C365.624 179.885 366.958 153.218 376.562 127C382.405 115.511 391.571 108.511 404.062 106Z" fill="white"/>
<path opacity="0.982" fill-rule="evenodd" clip-rule="evenodd" d="M800.063 54.0001C823.741 51.7911 846.741 54.6251 869.063 62.5001C874.561 65.4151 879.895 68.5811 885.063 72.0001C905.335 59.3881 927.502 53.3881 951.563 54.0001C1015.16 53.9331 1047.16 85.5991 1047.56 149C1048.06 193.665 1048.23 238.332 1048.06 283C1035.02 283.353 1022.02 282.853 1009.06 281.5C996.303 278.398 989.803 270.231 989.563 257C989.543 213.954 988.873 170.954 987.563 128C984.293 116.399 976.795 109.232 965.063 106.5C951.914 103.612 939.248 104.945 927.063 110.5C920.102 115.143 915.935 121.643 914.563 130C913.105 180.643 912.605 231.31 913.063 282C894.063 282 875.063 282 856.063 282C856.536 230.967 856.036 179.967 854.563 129C851.9 117.671 845.066 110.171 834.063 106.5C819.5 102.254 805.5 103.587 792.063 110.5C785.504 115.784 781.67 122.617 780.563 131C779.896 175.333 779.896 219.667 780.563 264C787.815 320.885 816.648 362.719 867.063 389.5C909.099 409.76 953.432 421.76 1000.06 425.5C1052.72 430.069 1105.39 430.069 1158.06 425.5C1252.8 416.765 1346.47 401.432 1439.06 379.5C1516.89 361.128 1593.89 340.128 1670.06 316.5C1553.68 362.071 1434.68 399.404 1313.06 428.5C1234.45 447.324 1154.78 458.657 1074.06 462.5C1011.62 465.723 950.287 459.056 890.063 442.5C841.007 428.41 799.507 402.576 765.563 365C727.608 316.696 713.108 261.862 722.063 200.5C722.23 178 722.396 155.5 722.563 133C727.443 85.9551 753.276 59.6211 800.063 54.0001Z" fill="white"/>
<path opacity="0.982" fill-rule="evenodd" clip-rule="evenodd" d="M1140.06 60.9998C1162.14 60.1448 1183.8 62.6448 1205.06 68.4998C1229.24 76.3378 1242.74 92.8378 1245.56 118C1246.23 170.667 1246.23 223.333 1245.56 276C1243.8 282.762 1239.63 287.262 1233.06 289.5C1223.73 290.167 1214.39 290.167 1205.06 289.5C1201.18 288.311 1197.68 286.478 1194.56 284C1171.41 292.265 1147.58 295.432 1123.06 293.5C1080.56 289.334 1058.23 266.001 1056.06 223.5C1056.12 193.475 1069.79 172.475 1097.06 160.5C1117.86 153.589 1139.19 149.256 1161.06 147.5C1170.29 146.299 1178.45 142.799 1185.56 137C1191.93 123.556 1187.76 114.722 1173.06 110.5C1157.69 106.565 1142.69 107.565 1128.06 113.5C1124.63 116.256 1121.97 119.59 1120.06 123.5C1101.06 124 1082.06 124.167 1063.06 124C1067.41 93.4808 1084.41 73.9808 1114.06 65.4998C1122.78 63.4368 1131.44 61.9368 1140.06 60.9998ZM1187.06 178C1188.06 178 1189.06 178 1190.06 178C1190.23 187.672 1190.06 197.339 1189.56 207C1184.31 233.396 1168.14 246.729 1141.06 247C1120.13 245.897 1110.96 234.897 1113.56 214C1116.63 204.591 1122.8 198.091 1132.06 194.5C1144.72 191.167 1157.39 187.834 1170.06 184.5C1176.02 182.796 1181.69 180.629 1187.06 178Z" fill="white"/>
<path fill-rule="evenodd" clip-rule="evenodd" d="M322.062 95.9999C323.457 97.1479 323.291 98.1479 321.562 98.9999C306.038 69.7989 281.537 54.6329 248.062 53.4999C218.642 49.7249 191.476 55.5579 166.562 70.9999C157.719 65.3289 148.552 60.3289 139.062 55.9999C148.976 58.4569 157.976 62.7899 166.062 68.9999C186.817 56.1429 209.483 50.1429 234.062 50.9999C257.971 49.9759 279.971 55.8089 300.062 68.4999C309.472 76.0689 316.806 85.2359 322.062 95.9999Z" fill="white"/>
<path opacity="0.982" fill-rule="evenodd" clip-rule="evenodd" d="M1358.06 65C1364.39 65 1370.73 65 1377.06 65C1377.06 85 1377.06 105 1377.06 125C1366.72 124.834 1356.39 125 1346.06 125.5C1325.23 129.336 1313.73 141.836 1311.56 163C1311.23 200.667 1310.89 238.333 1310.56 276C1308.8 282.762 1304.63 287.262 1298.06 289.5C1288.06 290.167 1278.06 290.167 1268.06 289.5C1260.56 287.333 1255.73 282.5 1253.56 275C1252.89 237 1252.89 199 1253.56 161C1254.99 131.646 1266.49 107.146 1288.06 87.5C1309.27 73.202 1332.6 65.702 1358.06 65Z" fill="white"/>
<path fill-rule="evenodd" clip-rule="evenodd" d="M272.062 259C272.229 217.332 272.062 175.665 271.562 134C268.28 112.399 255.614 102.066 233.562 103C220.821 102.464 210.155 106.797 201.562 116C199.108 120.031 197.442 124.364 196.562 129C196.229 180.333 195.896 231.667 195.562 283C175.806 283.993 155.972 284.326 136.062 284C136.229 233.332 136.062 182.666 135.562 132C133.602 116.042 124.769 106.542 109.062 103.5C96.2635 101.313 83.9305 102.813 72.0625 108C72.8524 106.706 73.8524 105.539 75.0625 104.5C82.8995 101.005 91.0655 99.172 99.5625 99C106.304 100.749 113.136 102.249 120.062 103.5C125.229 107.333 129.73 111.833 133.562 117C135.266 122.445 136.766 127.945 138.062 133.5C136.872 182.986 136.872 232.486 138.062 282C156.729 282 175.396 282 194.062 282C193.896 232.332 194.062 182.666 194.562 133C194.896 129.333 195.229 125.667 195.562 122C199.145 115.974 203.312 110.474 208.062 105.5C226.795 99.966 245.128 100.966 263.062 108.5C265.194 112.264 267.694 115.764 270.562 119C271.456 123.363 272.457 127.696 273.562 132C273.729 146.833 273.896 161.667 274.062 176.5C273.461 203.24 273.461 229.906 274.062 256.5C273.497 257.495 272.83 258.328 272.062 259Z" fill="#FDFDFD"/>
</svg>
